<?xml version="1.0" encoding="UTF-8"?><svg id="Layer_2" xmlns="http://www.w3.org/2000/svg" viewBox="0 0 242.78 477.11"><defs><style>.cls-1{fill:#ef7a7a;}.cls-2{fill:#97d4c8;}.cls-3{fill:#009e84;}.cls-4{fill:#0f503a;}</style></defs><g id="Layer_1-2"><g><path class="cls-1" d="M180.28,205.9c-95.58-8.91-86.4,135.13-27.71,144.21l-3.09,6.35,5.51,1.44-1.2-7.63c2.87,.35,5.87,.16,9.06,.07,72.39-2.07,128.01-134.13,17.43-144.44Z"/><path class="cls-2" d="M121.24,105.44c-91.92,53.36-40.7,149.87,35.83,141.93l-1.8,7.09,12.71-2.66-4.73-5.28c4.02-.7,8.11-1.69,12.23-3,86.04-27.21,29.62-186.76-54.24-138.08Z"/><path class="cls-4" d="M73.85,152.74c-94.22-11.9-94.22,122.88-23.01,150.72,8.32,3.25,16.98,1.9,24.58,.86l-2.55,10.46,14.5-5.5-5.53-6.18c69.45-16.77,81.06-139.12-7.98-150.37Z"/><path class="cls-3" d="M69.04,4.21C-24.9,31.9,29.94,144.54,80.02,156.5l-4.99,6.81h13.02l-2.76-5.93c5.72,.53,11.3-.35,16.51-2.96C153.75,128.45,176.33-27.41,69.04,4.21Z"/><path class="cls-2" d="M153.8,351.23l.19-.98-2.49-.49-.19,.98,.51,.1c-17.94,105.19-45.21,96.19-55.15,107.06,7.9-19.09,60.9-105.95,60.9-210.54h-1c0,103.87-52.38,189.8-60.71,209.96,.04-5.67-.6-17.04-2.39-56.8-3.05-67.59-7.65-150.33-7.68-242.27l.16-.47s-.11-.03-.16-.04c0-.11,0-.23,0-.35h-1s0,.06,0,.09c-.84-.18-1.79-.34-2.67-.47-1.12-.17-2.19-.34-2.63-.52l-.38,.93c.56,.22,1.62,.39,2.86,.58,.94,.15,1.97,.31,2.83,.51,.04,91.95,4.63,174.52,7.68,242.06,1.46,32.35,2.55,52.67,2.41,58.24-4.39-10.46-12.21-154.85-12.53-155.79l-.79-.61c-.76,.99-4.6,2.08-6.14,1.92l-.3,1.24c.11,.01,4.45-.7,5.99-1.58,.27,40.13,2.11,36.02,4.31,70.98,2.82,44.99,6.44,81.18,9.27,85.21l.09,1.05c.23,7.15,.68,15.26,1.56,15.8l.49,.09-.23-.77c.21-.04,.38,.05,.42,.11-.53-.72-1.04-8.7-1.26-15.98l18.15-1.45-.1-.79-17.47,1.39c6.61-6.96,37.61,1.69,56.45-108.6l1.03,.2Z"/></g></g></svg>