<?xml version="1.0" encoding="UTF-8"?><svg id="Layer_2" xmlns="http://www.w3.org/2000/svg" viewBox="0 0 420.07 430.18"><defs><style>.bandp-black{fill: #0e503a}.bandp-1{fill:none;}.bandp-2{fill:#fcdcdc;}</style></defs><g id="Layer_1-2"><g><path class="bandp-black" d="M210,41.26c45.41,0,88.1,17.68,120.21,49.79,32.11,32.11,49.79,74.8,49.79,120.21s-17.68,88.1-49.79,120.21c-32.11,32.11-74.8,49.79-120.21,49.79s-88.1-17.68-120.21-49.79c-32.11-32.11-49.79-74.8-49.79-120.21s17.68-88.1,49.79-120.21c32.11-32.11,74.8-49.79,120.21-49.79m0-40C94.02,1.26,0,95.28,0,211.26s94.02,210,210,210,210-94.02,210-210S325.98,1.26,210,1.26h0Z"/><path class="bandp-2" d="M363.08,1.22c-3,3.6-5.44,6.26-7.21,8.08C347.94-.75,342.92,.01,342.92,.01c-15.73,41.4-31.98,86.41-53.93,125.7-4.8,8.58-9.89,16.87-15.29,24.81-10.02-.71-20.07-1.08-30.12-1.41-4.18-.14-8.57-.67-12.05-3.16-6.86-4.9-14.37-5.92-22.53-5.26-15.1,1.22-30.15-1.21-45.28-.94-6.59,.12-13.24-2.26-19.83-3.68-3.9-.84-7.39-.37-10.54,2.14-8.02,6.37-21.33,11.67-31.03,10.49-12.3-1.49-30.17-5.01-41.17-10.6-1.33-.68-2.78-1.42-3.96-1.52-.17,.3-1.52,2.83-1.77,3.73,.8,.39,3.24,.8,3.89,1.3,.68,.19,1.47,.52,2.42,.99,11.84,5.9,30.69,8.76,43.8,9.76,3.91,.3,7.86,.13,11.91,.18,.02,4.28-5.05,5.55-3.23,10.1,4.28-4.16,7.92-8.55,12.2-12.32,4.54-4,12.42-11.73,18.82-10.28,7.22,1.64,14.45,4.17,22.02,3.52,15.59-1.32,31.09,2.04,46.69,.6,4.25-.39,8.25,.74,11.93,3.16,5.22,3.42,11.25,4.43,17.33,4.86,7.89,.55,15.81,.89,23.71,1.22,6.76,.29,13.47,.76,20.08,2.64,5.71,5.05,10.56,13.62,16.66,19.71,.8,.8,1.58,1.83,1.89,2.9,2.57,8.95,8.8,15.11,15.59,20.9,2.11,1.8,4.18,3.68,5.28,6.73-3.44,4.15-8.14,6.01-12.94,4.74-14.25-3.77-28.14-8.55-37.71-20.88-.57-.73-1.04-1.54-1.35-1.99-.98-3.38,1.77-6.18,.47-9.22-.53,.09-1.28,.08-1.32,.25-1.88,7.39-7.48,9.43-14.17,10.03-2.78,.25-5.55,.69-8.33,1.01-5.73,.66-7.59-.37-9.64-5.61-.59-1.51-.75-3.19-2.76-4.14-2.01,1.5,1.59,9.02,.29,10.38-3,4.31-1.6,2.21-4.67,5.47-.44,2.1-4.87,1.6-6.41,2.11-.33,1.1-.84,2.05-1.49,2.87-.65,1.51-.92,1.37-3.34,2.81-3.83,2.28-7.66,4.46-12.05,5.44-8.27,1.84-15.83,5.37-23.09,9.62-5.4,3.16-11.33,4.06-17.42,4.37-3.06,.16-6.12,.37-9.47,.57-1.61-.22-3.25,.05-3.85,1.78-1.34,3.84-27.44,7.62-27.44,7.62l-20.53-2.89c3.34,5.34,38.63,8.76,54.22-3.94,.53,.19,1.04,.44,1.46,.88,.44,1.54,1.14,3.51,1.53,5.53,.48,2.52,1.84,4.24,4.11,5.27,1.64,.74,2.97,1.75,4.09,2.93,2.08,2.09,3.68,4.76,4.69,7.29-.26,.62-4.12,6.57-3.69,12.83,.14,.96,.32,1.94,.54,2.97,2.06,3.42,.98,.29,2.85,3.87-2.23,.75-14.7,17.18-18.44,20.12-1.12-.3-2.25-.56-3.41-.74-2.98-.47-6.04-1.07-8.78-2.27-15.63-6.83-32.35-10.32-48.38-15.89-5.72-1.98-3.52-.8-9.17-2.95-4.21-1.6-8.2-3.67-11.69-6.49-3.1-.93-6.2-1.9-9.34-2.69-2.61,.14-3.49,.63-6.22,0-1.33-.31-7-1.64-7.6-2.05-2.5-1.05-10.13-4.72-11.53-5.3,0,.32,1.03,4.27,1.04,4.39,4.17,2.31,13.52,5.49,19.06,6.22,3.38,.44,10.27,.12,12.78,2.36,3.67,3.27,7.96,5.29,12.66,6.91,20.4,7.02,33.18,9.9,53.31,17.73,3.65,1.42,7.3,3.06,11.3,3.55,.69,.08,1.37,.2,2.04,.32-23.68,18.71-93.55,86.07-92.5,87.78,.86,1.41-7.74,11.85-4.88,16.61,0,0,5.12,2.09,6.75,6.96,2.23,6.67,13.26,14.67,13.59,15.15,.95,1.38,28.92,18.18,32.5,9.93,0,0,53.77-72.37,97.23-107.12,4.5-3.6,3.56-4.54,6.11-13.44,.02,0,.03,0,.05,.01,12.16,2.83,20.11,.04,27.03-10.19,2.07-3.05,4.11-6.12,6.31-9.4,12.87-.08,19.27-7.64,21.35-19.67,6.52-.63,12.49-1.27,18.46-1.76,4.48-.36,8.06-2.26,10.57-5.95,2.53-3.71,4.14-7.67,4.15-12.35,.01-2.9-1.26-6.03,.64-8.81,12.26-3.92,16.98-12.51,16.45-24.38,3.62-2.7,5.14-2.94,8.96-5.26,4.63-2.81,7.17-3.14,4.15-8.89-3.6-6.85-7.39-6.78-12.19-12.29-1.18-1.36-2.35-2.63-3.51-3.86,.91,.76,1.71,1.42,2.34,1.92,3.17-5.23,10.36-11.71,12.91-17.34,27.78-61.34,73.37-114.43,79.32-116.04,.03,0,7.15-4.44,7.6-7.05,1.77-10.37-49.72-53.47-56.94-44.82ZM92.2,420.73c-7.78-4.38-20.68-10.85-21.86-25.73-.05-.58,6.51-11.59,9.99-11.43,6.05,.28,6.38,10.92,13.79,14.54,7.43,3.61,11.98,20.39,13.13,25.28,1.15,4.88-8.99,.75-15.06-2.66ZM242.26,193.65c1.01-1.81,7.9,.56,10.17,.78,.43,.04,3.56-.39,4.21,.99,2.64,5.68-9.47,12.16-12.18,9.73,0,0-2.65-1.72-3.5-2.22-6.74-3.94-.48-6.08,1.31-9.28Zm-31.92,21.9c2.96-1.25,6.17-4.78,9.65-6.88,1.95-1.17-3.17,16.57-6.82,16.86-4.05,.32-12.2-6.9-11.79-7.23,2.88-2.27,6-1.49,8.96-2.75Zm-39.57,15.37c.85-2.11,4.91-2.43,8.88-3.76,0,0,6.93-2.59,8.96-2.75,2.03-.16,4.29,2.72,4.29,2.72,0,0-3.29,2.07-4.67,5.47-1.71,4.21-2.48,7.33-8.72,5.79-2.21-.55-9.6-5.36-8.75-7.47Zm7.47,30c-.52-.87-1.57-7.01,2.32-9.36,1.95-1.17,18.8,5.65,14.91,8-2.46,1.48-3.57,6.4-3.57,6.4-3.12-.77-12.48-3.09-13.66-5.04Zm14.12,28.65c6.51,5.71,6.97,4.54,7.1,6.23,.13,1.69-8.61-4.41-8.61-4.41,0,0-.27-3.37,1.51-1.82Zm3.93,10.57s-1.91-2.76,.39-2.36c2.3,.41,3.31,.63,4.26,2.01,.96,1.38-4.65,.34-4.65,.34Zm36.82,1.69c-1.32,.9-2.78,1.59-4.36,2.09-.19,.06-.39,.12-.59,.18-1.62,.46-3.37,.73-5.27,.8-1.34,.05-2.75,0-4.23-.13-.84-.08-1.68-.18-2.52-.27-2.95-3.91-5.1-8.01-11.36-12.35-.05-.06-.09-.13-.12-.18-4.24-7.67-11.42-11.89-18.38-16.52-3.92-2.61-3.7-3.04-4.2-9.05,4.71-.02,8.63,3.54,12.8,3.11,4.36-1.86,2.54-6.18,4.43-8.55,1.85-1.35,3.29-.24,4.64,.53,2.47,1.41,5.06,2.48,7.88,2.68,4.74,.34,8.35,2.6,11.38,6.08,4.59,5.27,9.62,10.08,15.13,14.4,.19,.15,.37,.3,.54,.45,1.23,1.09,2.15,2.41,2.57,4.06-1.85,5.95-4.59,10.13-8.35,12.68Zm10.75-16.86c-6.23-4.54-12.62-9.08-17.55-15.43-3-3.87-6.89-6.37-12.09-7.47-9.67-2.04-18.01-7.37-26.1-12.82-2.72-1.83-6.72-2.53-7.71-6.94,2.52-2.17,5.75-.51,8.8-1.53,1.3-5.31,4.8-7.25,7.92-11.95-1.03-2.81-3.71-4.77-4.93-7.07-.09-.14-.17-.3-.25-.47,2.56-2.29,4.75-.77,6.85,.54,6.5,4.04,12.89,8.26,19.44,12.21,13.72,8.26,27.92,15.73,41.05,24.97,2.08,1.46,4.19,2.89,6.1,4.21,1.53,14.49-4.08,20.12-21.53,21.75Zm49.13-23.34c-5.42,1.6-11.29,1.58-17.02,2.44-2.59,.39-5.14-.2-7.28-1.82-15.05-11.39-31.53-20.49-47.84-29.85-1.46-.84-2.53-2.02-3.54-4.2,5.23-5.52,6.62-12.65,5.63-20.09,2.61-2.66,5.16-4.6,7.65-6,15.01,6.76,28.16,16.07,43.2,21.98,7.19,2.83,13.52,7.91,20.76,11.14,3.89,1.74,4.71,6.15,4.73,10.27,.03,6.07-2.06,11.38-6.28,16.14Zm17.35-30.2c-3.36,4.49-8.34,3.52-12.83,1.7-6.01-2.43-12.09-4.65-17.25-8.92-3.38-2.8-7.71-4.16-11.88-5.68-5.15-1.88-11.42-6.67-17.26-9.23,4.67-5.22,12.21-7.13,9.46-16.09,.92-1.12,12.32,1.06,13.41,2,1.09,.93,11.68,8.62,16.37,10.41,8.02,3.07,16,6.23,23.98,9.35,4.06,6.92-.53,11.78-4.02,16.44Zm12.47-38.03c5.39,3.65,7.82,8.56,5.79,8.72-2.27,.18-17.62-17.34-16.64-17.04,5.23,1.63,5.47,4.67,10.86,8.32Zm-3.15-14.03c-3.12-.77-6.03-4.61-7.66-6.53-1.1-1.3-4.53-4.46-3.52-5.84,.81-1.11,3.17,1.44,3.28,2.8,.24,3.04,9.29,9.92,7.9,9.57Zm1.71-4.21c-.08-1.01-3.6-6.85-3.6-6.85q.85-2.11,1.95-1.17c1.09,.93,1.57,7.01,2.59,6.93,1.01-.08-.85,2.11-.93,1.09ZM353.13,12.77c-14.82,25.85-27.38,50.07-38.95,72.33-3.47,6.68-6.85,13.18-10.18,19.49s-6.6,12.44-9.85,18.37h0c-5.5,10.04-10.95,19.49-16.51,28.35-.4-.03-.8-.06-1.2-.07,5.25-7.96,10.18-16.07,14.78-24.28,.8-1.43,1.6-2.87,2.38-4.3h0c4.17-7.65,8.08-15.36,11.78-23.08,2.47-5.15,4.84-10.29,7.13-15.42,3.43-7.7,6.68-15.36,9.77-22.92,4.12-10.09,7.98-20,11.66-29.61,2.76-7.2,5.42-14.23,8.03-21.02,.87-2.26,1.73-4.5,2.58-6.71h0s10.2,6.09,8.59,8.88Z"/><path class="bandp-1" d="M227.38,198.91c-.45,1.11-.73,1.86-.97,2.4,.66-.83,1.16-1.77,1.49-2.87-.32,.11-.52,.25-.53,.48Z"/><path class="bandp-1" d="M192.18,221.76c-.08-.16-.18-.31-.25-.47,.07,.17,.16,.32,.25,.47Z"/><path class="bandp-1" d="M41.5,207.31c.08-.47,.16-.92,.25-1.36-.09,.45-.18,.91-.25,1.36Z"/><path class="bandp-1" d="M176.15,264.39c-.22-1.03-.4-2.01-.54-2.97,.07,.99,.23,1.98,.54,2.97Z"/><path class="bandp-1" d="M62.96,257.46c-2.57-.43-4.84-1.04-6.99-1.95,1.03,.7,2.4,1.17,6.99,1.95Z"/><path class="bandp-1" d="M174.61,241.31c-1.12-1.18-2.44-2.18-4.09-2.93,1.51,.68,2.88,1.71,4.09,2.93Z"/><path class="bandp-1" d="M241.44,289.15c-1.85,5.95-4.59,10.13-8.35,12.68,3.76-2.55,6.5-6.73,8.35-12.68-.42-1.65-1.34-2.97-2.57-4.06,1.23,1.09,2.15,2.41,2.57,4.06Z"/><path class="bandp-1" d="M312.5,84.15c3.43-7.7,6.68-15.36,9.77-22.92-3.09,7.57-6.34,15.23-9.77,22.92Z"/><path class="bandp-1" d="M344.54,3.89h0s10.2,6.09,8.59,8.88c-14.82,25.85-27.38,50.07-38.95,72.33,11.57-22.26,24.12-46.48,38.95-72.33,1.61-2.8-8.59-8.88-8.59-8.88Z"/><path class="bandp-1" d="M228.73,303.91c-.19,.06-.39,.12-.59,.18,.2-.06,.39-.12,.59-.18Z"/><path class="bandp-1" d="M322.27,61.23c4.12-10.09,7.98-20,11.66-29.61-3.68,9.6-7.54,19.52-11.66,29.61Z"/><polygon class="bandp-1" points="294.15 122.96 294.15 122.96 293.87 122.8 294.15 122.96"/><path class="bandp-black" d="M241.44,289.15c-.42-1.65-1.34-2.97-2.57-4.06-.18-.16-.36-.31-.54-.45-5.5-4.32-10.53-9.13-15.13-14.4-3.03-3.48-6.64-5.74-11.38-6.08-2.82-.2-5.41-1.27-7.88-2.68-1.35-.77-2.79-1.88-4.64-.53-1.89,2.37-.07,6.69-4.43,8.55-4.18,.43-8.1-3.13-12.8-3.11,.5,6.01,.28,6.44,4.2,9.05,6.96,4.63,14.14,8.85,18.38,16.52,.03,.05,.08,.12,.12,.18,6.25,4.34,8.41,8.45,11.36,12.35,.84,.1,1.68,.19,2.52,.27,1.48,.14,2.89,.18,4.23,.13,1.9-.07,3.65-.34,5.27-.8,.2-.06,.39-.12,.59-.18,1.58-.5,3.04-1.19,4.36-2.09,3.76-2.55,6.5-6.73,8.35-12.68Z"/><path class="bandp-black" d="M305.69,178.66c-.31-1.06-1.08-2.1-1.89-2.9-6.11-6.08-10.95-14.65-16.66-19.71-6.61-1.89-13.33-2.36-20.08-2.64-7.91-.33-15.82-.68-23.71-1.22-6.08-.42-12.11-1.44-17.33-4.86-3.68-2.41-7.68-3.55-11.93-3.16-15.59,1.44-31.1-1.92-46.69-.6-7.57,.64-14.8-1.88-22.02-3.52-6.41-1.46-14.28,6.28-18.82,10.28-4.28,3.76-7.92,8.16-12.2,12.32-1.82-4.55,3.25-5.82,3.23-10.1-4.05-.05-8,.12-11.91-.18-13.12-1-38.6-6.88-50.44-12.79-5-2.49,.12,.77-3.87,4.54-3.73,3.51-5.46,9.38-6.14,14.47-2.07,15.68-6,49.21-6.08,49.68-2.37,14.49,1.18,38.11,5.28,41.57,2.44,2.07,9.2,4.63,11.69,5.68,2.15,.91,4.42,1.53,6.99,1.95,2.14,.36,3.6,.46,6.1,.6s3.41-.3,6.31,1.08c7.22,3.44,9.79,5.22,15.46,7.38,5.65,2.15,3.45,.97,9.17,2.95,16.04,5.57,32.75,9.06,48.38,15.89,2.74,1.2,5.8,1.8,8.78,2.27,1.16,.18,2.29,.44,3.41,.74,3.73-2.94,6.97-5.48,9.43-7.41,1.05-.82,1.89-1.83,2.96-2.31,2.6-1.17,5.81-10.64,8.04-11.39-1.87-3.58-2.79,.56-4.85-2.87-.31-.98-.48-1.98-.54-2.97-.42-6.25,3.44-12.2,3.69-12.83-1.01-2.53-2.61-5.2-4.69-7.29-1.21-1.22-2.58-2.24-4.09-2.93-2.27-1.03-3.63-2.75-4.11-5.27-.39-2.03-1.09-3.99-1.53-5.53-.42-.44-.93-.68-1.46-.88-15.58,12.7-50.87,9.28-54.22,3.94l20.53,2.89s26.1-3.78,27.44-7.62c.61-1.73,2.24-2,3.85-1.78,3.35-.21,6.41-.42,9.47-.57,6.1-.31,12.03-1.21,17.42-4.37,7.26-4.25,14.82-7.79,23.09-9.62,4.4-.98,8.22-3.16,12.05-5.44,2.42-1.44,2.69-1.31,3.34-2.81,.23-.54,.52-1.29,.97-2.4,0-.22,.21-.37,.53-.48,1.53-.51,5.97-.01,6.41-2.11,3.06-3.26,1.66-1.16,4.67-5.47,1.3-1.36-2.3-8.88-.29-10.38,2.01,.95,2.17,2.63,2.76,4.14,2.05,5.24,3.91,6.27,9.64,5.61,2.78-.32,5.54-.76,8.33-1.01,6.69-.6,12.29-2.64,14.17-10.03,.04-.17,.79-.16,1.32-.25,1.3,3.04-1.45,5.84-.47,9.22,.3,.45,.78,1.25,1.35,1.99,9.57,12.34,23.46,17.11,37.71,20.88,4.8,1.27,9.5-.59,12.94-4.74-1.1-3.05-3.17-4.93-5.28-6.73-6.79-5.78-13.02-11.95-15.59-20.9Z"/><path class="bandp-black" d="M294.53,235.22c-7.24-3.23-13.57-8.31-20.76-11.14-15.03-5.91-28.18-15.23-43.2-21.98-2.49,1.4-5.04,3.34-7.65,6,.99,7.44-.4,14.58-5.63,20.09,1.01,2.18,2.07,3.36,3.54,4.2,16.31,9.37,32.79,18.46,47.84,29.85,2.15,1.63,4.69,2.21,7.28,1.82,5.73-.86,11.6-.84,17.02-2.44,4.22-4.76,6.31-10.07,6.28-16.14-.02-4.12-.84-8.53-4.73-10.27Z"/><path class="bandp-black" d="M259.28,259c-13.13-9.24-27.33-16.7-41.05-24.97-6.55-3.95-12.94-8.17-19.44-12.21-2.1-1.31-4.29-2.83-6.85-.54,.07,.16,.16,.31,.25,.47,1.22,2.31,3.9,4.27,4.93,7.07-3.12,4.7-6.61,6.64-7.92,11.95-3.05,1.01-6.28-.65-8.8,1.53,.98,4.41,4.99,5.11,7.71,6.94,8.09,5.45,16.44,10.78,26.1,12.82,5.2,1.1,9.09,3.59,12.09,7.47,4.93,6.36,11.32,10.89,17.55,15.43,17.45-1.63,23.06-7.26,21.53-21.75-1.92-1.32-4.02-2.75-6.1-4.21Z"/><path class="bandp-black" d="M290.36,205.63c-4.69-1.79-15.28-9.48-16.37-10.41s-12.5-3.11-13.41-2c2.75,8.96-4.79,10.87-9.46,16.09,5.84,2.56,12.11,7.35,17.26,9.23,4.16,1.52,8.5,2.88,11.88,5.68,5.16,4.27,11.24,6.49,17.25,8.92,4.49,1.82,9.46,2.79,12.83-1.7,3.49-4.66,8.08-9.52,4.02-16.44-7.99-3.12-15.97-6.29-23.98-9.35Z"/><path class="bandp-black" d="M344.54,3.89h0c-.86,2.21-1.72,4.45-2.58,6.71-2.6,6.79-5.26,13.82-8.03,21.02-3.68,9.6-7.54,19.52-11.66,29.61-3.09,7.57-6.34,15.23-9.77,22.92-2.29,5.13-4.66,10.28-7.13,15.42-3.7,7.72-7.61,15.43-11.78,23.08h0c-.78,1.43-1.58,2.87-2.38,4.3-4.59,8.22-9.53,16.33-14.78,24.28,.4,0,.8,.03,1.2,.07,5.56-8.86,11.01-18.32,16.51-28.35l-.28-.15,.28,.15h0c3.25-5.93,6.53-12.05,9.85-18.37,3.33-6.31,6.71-12.81,10.18-19.49,11.57-22.26,24.12-46.48,38.95-72.33,1.61-2.8-8.59-8.88-8.59-8.88Z"/><path class="bandp-black" d="M179,276.26c-4,0-32.95,32.37-36,35-19.12,16.46-9,10-20.99,20.96-10.94,10-10.81,13.81-24.28,22.58-15.56,10.12-34.01,30.88-33.72,34.6,.04,.54,16-18.88,21.73-22.94,3.82-2.71,16.92-11.31,16.92-11.31l20.76-20.59,55.58-58.3Z"/><path class="bandp-black" d="M94.13,398.1c-7.42-3.63-7.74-14.26-13.79-14.54-3.49-.16-10.04,10.85-9.99,11.43,1.18,14.89,14.08,21.36,21.86,25.73,6.07,3.42,16.21,7.55,15.06,2.66-1.15-4.9-5.7-21.67-13.13-25.28Zm-17.61-2.43c-1.04,.89-1.09,1.89-.88,4.58,.28,3.58,1.8,7.07,1.8,7.07-1.37-1.69-2.89-5.18-3.1-7.87-.12-1.5,0-3.91,1.42-5.52,1.71-1.94,6.27-7.38,6.4-6.12,.16,1.56-3.32,5.87-5.64,7.86Z"/><path class="bandp-black" d="M199.45,295.79c-.13-1.69-.59-.52-7.1-6.23-1.78-1.56-1.51,1.82-1.51,1.82,0,0,8.74,6.1,8.61,4.41Z"/><path class="bandp-black" d="M196.66,297.78c-2.3-.41-.39,2.36-.39,2.36,0,0,5.6,1.04,4.65-.34s-1.97-1.61-4.26-2.01Z"/><path class="bandp-black" d="M308.47,167c-1.01,1.38,2.42,4.54,3.52,5.84,1.63,1.92,4.53,5.76,7.66,6.53,1.4,.35-7.66-6.53-7.9-9.57-.11-1.36-2.47-3.9-3.28-2.8Z"/><path class="bandp-black" d="M322.29,174.06c-1.01,.08-1.49-6-2.59-6.93q-1.09-.93-1.95,1.17s3.52,5.84,3.6,6.85c.08,1.01,1.95-1.17,.93-1.09Z"/><path class="bandp-black" d="M178.23,260.92c1.17,1.95,10.54,4.27,13.66,5.04,0,0,1.11-4.92,3.57-6.4,3.89-2.35-12.96-9.17-14.91-8-3.89,2.35-2.84,8.49-2.32,9.36Z"/><path class="bandp-black" d="M311.94,185.08c-.97-.3,14.38,17.22,16.64,17.04,2.03-.16-.4-5.07-5.79-8.72-5.39-3.65-5.63-6.69-10.86-8.32Z"/><path class="bandp-black" d="M244.45,205.15c2.71,2.42,14.82-4.06,12.18-9.73-.65-1.39-3.78-.95-4.21-.99-2.28-.21-9.16-2.59-10.17-.78-1.79,3.2-8.05,5.34-1.31,9.28,.85,.5,3.5,2.22,3.5,2.22Z"/><path class="bandp-black" d="M219.99,208.67c-3.48,2.1-6.69,5.63-9.65,6.88s-6.08,.48-8.96,2.75c-.41,.32,7.74,7.55,11.79,7.23,3.65-.29,8.77-18.03,6.82-16.86Z"/><path class="bandp-black" d="M188.23,232.6c1.38-3.4,4.67-5.47,4.67-5.47,0,0-2.27-2.88-4.29-2.72s-8.96,2.75-8.96,2.75c-3.97,1.33-8.03,1.65-8.88,3.76s6.54,6.92,8.75,7.47c6.24,1.55,7.01-1.57,8.72-5.79Z"/><path class="bandp-2" d="M75.77,393.93c-1.42,1.61-1.54,4.02-1.42,5.52,.21,2.69,1.73,6.18,3.1,7.87,0,0-1.51-3.49-1.8-7.07-.21-2.69-.16-3.69,.88-4.58,2.32-1.99,5.8-6.3,5.64-7.86-.13-1.26-4.69,4.18-6.4,6.12Z"/><g><path class="bandp-2" d="M184.01,403.55c-.32-.93-.46-2-.43-3.12,.03-1.12,.24-2.18,.62-3.08,2.15-5.4,9.59-7.62,19.1-7.33,10.15,.31,16.53,3.92,17.18,8.68l-4.44-.13c-1.25-3.14-5.52-5.34-12.83-5.56-7.28-.22-13.09,1.36-14.68,5.36-.25,.65-.42,1.4-.45,2.2-.03,.8,.1,1.56,.31,2.22,1.4,4.07,7.05,6.02,14.24,6.24,7.05,.21,11.11-1.62,12.87-4.79l4.47,.13c-1.43,4.81-7.61,7.93-17.44,7.64-9.41-.28-16.71-2.95-18.54-8.46Z"/><path class="bandp-2" d="M230.36,409.92l-2.4-19.97,4.36-.52,2.4,19.97-4.36,.52Z"/><path class="bandp-2" d="M268.12,402.32l-12.03-5.84-7.05,1.83,2.18,8.4-4.25,1.1-5.06-19.46,20.41-5.31c2.86-.74,5.19-.28,6.59,1.17,.66,.66,1.11,1.46,1.37,2.49,.28,1.08,.26,2.07,.01,2.96-.57,2.11-2.76,3.69-6.5,4.66l-2.6,.68,.11,.42,1.17,.08,11.53,5.29-5.89,1.53Zm-21.22-12.24l1.42,5.45,15.03-3.91c1.47-.38,2.38-1.09,2.67-2.18,.15-.48,.12-.92-.01-1.45-.14-.53-.37-.94-.69-1.25-.71-.74-1.88-.96-3.38-.58l-15.03,3.91Z"/><path class="bandp-2" d="M279.78,391.57c-.72-.67-1.35-1.54-1.85-2.55s-.81-2.03-.91-3.01c-.64-5.78,4.87-11.24,13.39-15.46,9.09-4.51,16.43-4.33,19.24-.44l-3.98,1.98c-2.58-2.18-7.38-2.11-13.93,1.14-6.52,3.24-10.91,7.37-10.42,11.65,.08,.7,.28,1.43,.64,2.15,.36,.72,.82,1.33,1.32,1.81,3.15,2.93,9.05,1.99,15.5-1.21,6.31-3.13,9.04-6.66,9.1-10.29l4.01-1.99c1,4.92-2.98,10.58-11.78,14.95-8.44,4.18-16.12,5.27-20.33,1.26Z"/><path class="bandp-2" d="M317.78,367.67l-6.21-7.72,3.39-2.73,6.14,7.63c3.21,3.99,8.42,3.84,13.55-.28,5.17-4.16,6.4-9.13,3.16-13.16l-6.14-7.63,3.4-2.73,6.21,7.72c4.32,5.37,2.56,12.24-4.75,18.13-7.34,5.9-14.42,6.15-18.75,.77Z"/><path class="bandp-2" d="M356.34,347.7l-15.33-13.02,2.84-3.34,13.05,11.08,13.1-15.43,2.28,1.93-15.94,18.77Z"/><path class="bandp-2" d="M391.22,297.19l-8.01,.84-7.67,13.7,3.49,7.25-2.57,4.59-10.43-22.56,3.09-5.51,24.68-2.91-2.57,4.59Zm-17.26,11.25l5.61-10.03-8.74,.9-1.52-.35-.23,.41,1.08,1.14,3.8,7.92Z"/><path class="bandp-2" d="M385.75,253.68l2.83,.95-4.23,12.62,16.23,5.44-1.39,4.13-16.23-5.44-4.23,12.62-2.83-.95,9.85-29.36Z"/><path class="bandp-2" d="M399.55,252.38c-.92,.22-1.85,.29-2.88,.18-1.03-.11-1.92-.39-2.77-.81-4.8-2.36-7.15-9.51-5.99-19.86,1.16-10.32,5.03-16.78,10.23-18.02,.92-.22,1.86-.32,2.89-.21,1.03,.11,1.92,.39,2.77,.84,4.8,2.36,7.15,9.51,5.99,19.83-1.16,10.35-5.03,16.81-10.23,18.05Zm2.85-33.68c-.57-.3-1.19-.49-1.87-.56-.69-.08-1.33-.03-1.98,.13-3.78,.93-6.76,5.93-7.66,13.95-.9,8.05,.91,13.55,4.39,15.3,.6,.3,1.22,.49,1.9,.57,.69,.08,1.33,.03,1.95-.13,3.81-.93,6.79-5.89,7.69-13.95,.9-8.02-.91-13.53-4.42-15.3Z"/><path class="bandp-2" d="M407.94,181.87l-7.52,11.07,.79,7.24,8.62-.95,.48,4.36-19.99,2.2-2.29-20.97c-.32-2.94,.47-5.17,2.11-6.35,.75-.55,1.61-.88,2.67-1,1.11-.12,2.08,.04,2.93,.41,2,.87,3.25,3.26,3.67,7.1l.29,2.67,.43-.05,.25-1.15,6.9-10.65,.66,6.05Zm-15.18,19.24l5.6-.61-1.69-15.44c-.17-1.51-.74-2.51-1.77-2.95-.46-.21-.89-.25-1.44-.2s-.99,.23-1.33,.5c-.83,.59-1.23,1.72-1.06,3.27l1.69,15.44Z"/></g><g><path class="bandp-2" d="M13.23,164.05l6.33,17.79,14.27-13.56-1.32,6.66-11.62,10.85,1.89,5.32,6.28,1.25-.8,4.03-20.63-4.09,.8-4.03,9.31,1.85,1.32,1.07,.08-.43-7.17-20.38,1.25-6.31Z"/><path class="bandp-2" d="M36.03,161.37l-19.39-8.14,2.14-5.1,22.36-11.21,2.44,.25,.17-.4-17.18-7.21,1.56-3.71,19.39,8.14-2.14,5.1-22.45,11.26-2.35-.3-.17,.4,17.18,7.21-1.56,3.71Z"/><path class="bandp-2" d="M45.39,121.72c-.93-.29-1.81-.72-2.69-1.34-.88-.63-1.57-1.32-2.16-2.1-3.3-4.43-2.26-11.55,3.38-19.5,5.63-7.93,12.01-11.26,17.28-9.6,.93,.29,1.83,.69,2.71,1.32,.88,.63,1.57,1.32,2.14,2.12,3.3,4.43,2.26,11.55-3.37,19.48-5.64,7.95-12.02,11.28-17.3,9.62Zm17.53-26.35c-.39-.54-.86-1.02-1.45-1.43-.59-.42-1.19-.71-1.86-.91-3.84-1.18-8.77,1.4-13.15,7.56-4.39,6.19-5.19,11.67-2.81,14.9,.41,.56,.89,1.03,1.48,1.45,.59,.42,1.19,.71,1.83,.9,3.86,1.2,8.78-1.36,13.17-7.55,4.38-6.16,5.17-11.64,2.78-14.92Z"/><path class="bandp-2" d="M75.55,93.44l1.95-16.33-16.3,.97,4.2-3.93,12.04-.72,1.02,.37,.48-.45-.3-1.04,1.51-11.94,4.18-3.91-2.09,16.22,16.45-.86-4.3,4.02-12.06,.5-.98-.32-.44,.41,.29,.96-1.29,11.98-4.36,4.08Z"/><path class="bandp-2" d="M112.93,62.35l-22.25-10.82,4.1-2.59,18.2,9.18,1.28,1.04,.37-.23-.37-1.61-.49-20.37,4.08-2.57,.23,24.73-5.14,3.25Z"/><path class="bandp-2" d="M135.97,49.47l-8.76-19.12,3.74-1.71,8.76,19.12-3.74,1.71Z"/><path class="bandp-2" d="M149.35,43.51l-6.43-20.02,3.91-1.26,5.48,17.05,18.04-5.79,.96,2.97-21.96,7.05Z"/><path class="bandp-2" d="M178.42,35.05l-3.15-20.79,4.06-.62,2.68,17.7,18.74-2.84,.47,3.09-22.8,3.46Z"/><path class="bandp-2" d="M208.46,31.27l.3-21.03,23.5,.34-.04,3.09-19.39-.28-.08,5.86,19.09,.28-.04,3.07-19.09-.28-.08,5.92,19.39,.28-.04,3.1-23.5-.34Z"/></g></g></g></svg>