<?xml version="1.0" encoding="UTF-8"?><svg id="Layer_2" xmlns="http://www.w3.org/2000/svg" viewBox="0 0 180.36 171.93"><defs><style>.env-1{fill:#fcdcdb;}</style></defs><g id="Layer_1-2"><g><path class="env-1" d="M.67,94.06v71.19c0,3.69,2.99,6.67,6.67,6.67H173.68c3.69,0,6.67-2.99,6.67-6.67V89.28c0-5.03-5.35-8.25-9.8-5.9l-78.94,41.81c-1.9,1-4.16,1.04-6.08,.09L10.3,88.08c-4.44-2.19-9.63,1.03-9.63,5.98Z"/><path class="env-1" d="M85.91,1.63L3.04,65.87c-5.92,4.59-2.59,14.08,4.91,13.95l163.93-2.74c7.4-.12,10.48-9.53,4.58-14L95.4,1.59c-2.81-2.13-6.7-2.11-9.49,.05Z"/></g></g></svg>