<?xml version="1.0" encoding="UTF-8"?><svg id="Layer_2" xmlns="http://www.w3.org/2000/svg" viewBox="0 0 432.74 432.74"><defs><style>.cls-1{fill:#fcdcdb;}.cls-2{fill:#231f20;}</style></defs><g id="Layer_1-2"><g><path class="cls-2" d="M415.71,132.13c-10.9-25.78-26.49-48.91-46.34-68.75s-42.98-35.44-68.75-46.34C273.89,5.73,245.55,0,216.37,0s-57.52,5.73-84.25,17.04c-25.77,10.9-48.91,26.49-68.75,46.34S27.94,106.35,17.04,132.13C5.73,158.85,0,187.2,0,216.37s5.73,57.52,17.04,84.25c10.9,25.77,26.49,48.91,46.34,68.75s42.98,35.44,68.75,46.34c26.73,11.3,55.07,17.04,84.25,17.04s57.52-5.73,84.25-17.04c25.78-10.9,48.91-26.49,68.75-46.34s35.44-42.98,46.34-68.75c11.3-26.73,17.04-55.07,17.04-84.25s-5.73-57.52-17.04-84.25Zm-107.64,185.19c-.81,.73-1.62,1.46-2.45,2.17-23.92,20.72-55.12,33.25-89.24,33.25-75.32,0-136.37-61.06-136.37-136.37S141.06,80,216.37,80s136.37,61.06,136.37,136.37c0,40.01-17.23,76-44.68,100.94Z"/><g><path class="cls-1" d="M127.9,63.58l-1.03-2.94,18.29-6.41,1.25,3.57c2.42,6.91,7.66,9.33,14.96,6.77,7.42-2.6,10.04-7.08,7.6-14.05l-7.76-22.14,18.29-6.41,7.54,21.52c4.39,12.51-3.05,23.58-22.76,30.49-20.05,7.03-31.72,2.92-36.39-10.39Z"/><path class="cls-1" d="M202.23,43.55c-.41-2.01-.42-4.2-.05-6.51,.37-2.31,1.07-4.39,2.08-6.17,5.66-10.34,21.35-13.42,43.74-9.84,22.34,3.57,36.28,11.39,38.44,22.98,.35,2,.42,4.2,.05,6.51-.37,2.31-1.07,4.39-2.08,6.17-5.78,10.32-21.35,13.42-43.68,9.85-22.4-3.58-36.22-11.38-38.5-22.99Zm63.57,7.19c.59-1,1-2.09,1.2-3.33,.2-1.24,.14-2.41-.1-3.54-1.25-6.28-8.83-11.26-20.45-13.11-11.67-1.87-20.44,.5-23.58,6.07-.58,1-.94,2.1-1.14,3.34-.2,1.24-.2,2.4,.04,3.53,1.3,6.29,8.83,11.26,20.51,13.12,11.61,1.86,20.32-.52,23.52-6.08Z"/><path class="cls-1" d="M286.54,79.12l21.53-36.06,16.69,9.97-21.53,36.06-16.69-9.97Z"/><path class="cls-1" d="M313.27,91.71l32.72-26.33,14.71,18.27-1.92,35.89-6.27,7.51,.79,.98,26.17-21.06,11.51,14.3-32.72,26.33-14.71-18.27,1.85-36.07,6.34-7.34-.79-.98-26.17,21.06-11.51-14.3Z"/><path class="cls-1" d="M394.39,302.01l-9.45-2.74,6.66-22.93-30.88-8.96,5.42-18.67,30.88,8.96,6.66-22.93,9.45,2.74-18.73,64.53Z"/><path class="cls-1" d="M347.39,360.72l-13.31,14.17-30.61-28.76,13.31-14.17,11.76,11.05,22.52-23.96-11.76-11.05,13.31-14.17,30.61,28.76-13.31,14.17-11.68-10.97-22.52,23.97,11.68,10.97Z"/><path class="cls-1" d="M295.11,349.42l14.41,39.45-53.53,19.56-3.15-8.62,35.28-12.89-2.53-6.93-34.54,12.62-3.03-8.28,34.54-12.62-2.55-6.99-35.28,12.89-3.15-8.62,53.53-19.55Z"/><path class="cls-1" d="M141.4,350.73l-26.16,32.86-15.21-12.11,20.03-25.16-28.63-22.8,6.13-7.7,43.84,34.9Z"/><path class="cls-1" d="M96.77,310.54l-34.47,24-11.11-15.95,34.47-24,11.11,15.95Z"/><path class="cls-1" d="M66.35,293.78l-5.29-18.27c4.09-1.18,4.69-7.54,2.3-15.78-1.87-6.45-4.53-11.12-7.14-11.74-.62-.2-1.11-.18-1.69-.01-.58,.17-1.02,.36-1.4,.78-1.05,1.12-1.08,3.62,.18,9.69l3.48,16.98c2.2,11.04,1.35,16.54-1.52,19.55-1.21,1.22-2.84,2.07-4.68,2.6-1.79,.52-3.44,.62-5.19,.19-6.79-1.66-13.05-11.21-17.97-28.21-5.99-20.69-3.94-32.84,5.62-35.6l5.29,18.27c-4.32,1.25-4.71,7.05-2.29,15.4,1.83,6.34,4.64,11.09,7.16,11.79,.47,.11,.96,.1,1.48-.05,.58-.17,.95-.4,1.34-.76,1.15-1.21,1.17-3.71-.1-9.84l-3.74-17.47c-2.22-10.48-1.24-15.94,1.59-18.89,1.25-1.3,2.95-2.1,4.85-2.65,1.84-.53,3.62-.67,5.44-.2,6.81,1.72,12.98,11.17,17.9,28.17,6,20.75,3.77,33.32-5.62,36.04Z"/><path class="cls-1" d="M29.45,151.85l9.72,1.52-3.69,23.59,31.77,4.97-3.01,19.21-31.77-4.97-3.69,23.59-9.72-1.52,10.39-66.39Z"/></g></g></g></svg>