<?xml version="1.0" encoding="UTF-8"?><svg id="Layer_2" xmlns="http://www.w3.org/2000/svg" viewBox="0 0 169.86 220.16"><defs><style>.cls-1{fill:#ef7a7a;}.cls-2{fill:#97d4c8;}.cls-3{fill:#009e84;}.cls-4{fill:#d2e5e1;}.cls-5{fill:#223030;}</style></defs><g id="Layer_1-2"><g><path class="cls-4" d="M72.92,201.68s85.99,6.18,88.45,3.79c1.44-1.4,.78-186.37,8.46-195.41,2.34-2.75-97.08-12.5-96.94-9.49s.03,201.1,.03,201.1Z"/><path class="cls-2" d="M72.92,201.7s84.15,7.85,84.41,5.63c.77-6.54-2.02-169.75,1.21-195.02,.43-3.39-68.69-13.45-85.66-11.72"/><path class="cls-1" d="M1.04,10.07C2.66,8.02,71.82-1.94,72.88,.6s1.83,172.72,1.66,200.82c-.03,5.98-74.34,23.03-73.53,17.74,1.04-6.87-2.76-205.57,.03-209.09Z"/><path class="cls-3" d="M72.88,.6c6.16,2.37,80.64,9.85,79.73,11.29-4.12,6.5,3.23,198.44-1.11,198.52-12.84,.24-77.98-3.62-76.96-8.99,0,0-4.74-202-1.66-200.82Z"/><path class="cls-5" d="M14.02,32.21c-.3,0-.57,0-.81-.01l.22-.41c3.08,.22,3.61-.16,14.02-2.73,15.54-3.84,25.11-6.09,27.06-4.96l-.79,.26c-1.61-.93-15.04,2.39-25.84,5.05-10.28,2.54-9.81,2.67-13.87,2.79Z"/><path class="cls-5" d="M14.02,76.12c-.3,0-.57,0-.81-.01l.22-.41c3.08,.22,3.61-.16,14.02-2.73,15.54-3.84,25.11-6.09,27.06-4.96l-.79,.26c-1.61-.93-15.04,2.39-25.84,5.05-10.28,2.54-9.81,2.67-13.87,2.79Z"/><path class="cls-5" d="M14.92,60.24c-.95,.03-1.65-.04-2-.24l.79-.26c1.43,.83,5.19,.03,14.66-2.43l.45,.35c-3.38,.87-8.16,2.4-13.91,2.58Z"/><path class="cls-5" d="M13.65,45.54l-.66-.28c.93-.41,2.59-.25,20.62-3.44,11.51-2.04,23.41-4.15,24.22-4.43l.24,.13,.58-.02c0,.26,0,.31-24.73,4.7-13.15,2.33-19.29,2.95-20.27,3.34Z"/><path class="cls-5" d="M100.95,69.57c-8.29-1.24-13.32-2.2-15.01-2.86l-.25-.1,.02-47.46c1.03-1.25,24.34,1.67,35.67,3.92,5.41,1.07,8.07,1.95,8.12,2.67,.05,.69-.04,4.95-.15,10.84-.24,12.17-.68,34.61,.03,36.42,.12,.04,.13,.09,.15,.17l.05,.21-.78-.07-.04-.02c-.29-.04-.83-.1-1.59-.2-10.82-1.35-19.57-2.52-26.22-3.51Zm-14.19-3.04c2.39,.81,11.48,2.53,40.34,6.13,.52,.07,.93,.12,1.25,.16-.51-1.65-.61-9.13-.08-36.41,.12-5.89,.2-10.14,.15-10.82-.01-.17-.56-.81-7.18-2.13-14.31-2.84-33.59-4.67-34.48-4.06v47.13Zm42.08,6.35s.03,0,.04,0h0s-.03,0-.04,0Z"/><path class="cls-5" d="M98.2,76.16c-5.67-.85-10.49-1.64-12.15-2.12l.36-.34c4.63,1.33,36.92,5.51,37.25,5.55l.06,.42c-.88-.11-14.72-1.9-25.51-3.51Z"/><path class="cls-5" d="M86.37,140.4l-.28-.44c2.61,.11,9.06,.91,16.53,1.83,10.31,1.28,24.43,3.03,26,2.47l.85,.38c-1.74,.61-12.19-.62-26.78-2.43-7.1-.88-13.81-1.71-16.31-1.82Z"/><path class="cls-5" d="M86.71,150.55s.04-.02,.05-.04l-1.07-.2c.14-.6,5.76,.03,25,2.48,10.38,1.32,23.3,2.97,24.31,2.69l.98,.3c-.49,.5-6.42-.17-25.23-2.57-10.26-1.31-23.04-2.94-24.05-2.67Z"/><path class="cls-5" d="M86.76,160.39l-1.07-.2c.04-.17,.37-.28,1.03-.35,4.53-.5,25.42,.94,31.88,2.69l-.32,.35c-5.84-1.59-25.49-2.99-30.57-2.64-.88,.06-.95,.15-.95,.15Z"/><polygon class="cls-5" points="13.5 112.17 13.14 111.79 58 103.01 58.35 103.38 13.5 112.17"/><path class="cls-5" d="M15.77,127.06c-.85,.03-1.53-.02-2.02-.14-.43-.11-.93-.34-.9-.81l.97-.02c-.02,.3,.26,.41,.47,.47,2.42,.63,2.34,.66,9.75-.99,6.66-1.48,10.5-2.31,11.82-2.16l-.31,.4c-1.02-.12-6.39,1.07-11.12,2.12-7.01,1.55-4.56,1-8.66,1.12Z"/><path class="cls-5" d="M13.67,153.05l-.7-.27c3.25-1.55,6.11-1.43,18.77-3.53,12.16-2.02,24.74-4.1,25.99-5.24l.87,.16c-1.44,1.3-13.08,3.24-26.57,5.47-12.55,2.08-15.29,1.95-18.37,3.41Z"/><path class="cls-5" d="M13.74,167.59l-.84-.18c1.68-1.34-.21-.28,7.85-1.46,6.57-.96,14.02-2.05,14.48-2.86l.94,.07c-.57,1-6.13,1.86-15.16,3.18-7.5,1.1-5.77,.06-7.26,1.24Z"/><path class="cls-5" d="M13.6,178.49l-.55-.33c2.96-.97,2.96-.23,13.79-1.87,12.03-1.82,25.66-3.89,26.85-4.87l.85,.17c-1.29,1.07-11.7,2.71-27.44,5.09-10.28,1.56-10.68,.88-13.51,1.81Z"/><path d="M87.53,93.92c-.81-.12-1.46-.24-1.88-.36l.08-.48c1.14,.33,4.41,.69,7.56,1.04,5.95,.65,8.61,1,9.05,1.52l-.4,.27c-.47-.4-5.18-.92-8.63-1.29-2.17-.24-4.26-.47-5.79-.7Z"/><path d="M97.64,102.42c-4.18-.62-9.69-1.81-12.8-2.5l.04-.49c8.35,1.87,17.3,3.44,17.84,2.83l.51,.23c-.18,.55-2.53,.39-5.59-.06Z"/><path d="M92.53,109.3c-1.75-.26-4.34-.71-8.16-1.44l.03-.5c5.17,.99,10.94,1.96,11.47,1.78,0,0-.04,.01-.06,.06l.48,.3c-.06,.11-.2,.33-3.75-.2Z"/><path d="M93.1,115.24c-2.71-.4-6.26-1.29-8.27-1.83l.07-.49c5.93,1.58,11.24,2.46,11.36,1.9l.53,.17c-.12,.58-1.67,.55-3.68,.25Z"/><path d="M133.71,121.3c-1.45-.22-3.48-.59-6.2-1.1-3.16-.6-6.42-1.21-7.56-1.22l-.08-.51c1.2,.01,4.34,.6,7.67,1.23,3.45,.65,8.16,1.54,8.64,1.28l.39,.4c-.24,.21-1.13,.18-2.85-.08Z"/><path d="M119.1,112.37l-.04-.5c5.39,.4,17.97,1.49,18.39,2.92l-.51,.06c-.53-.76-9.49-1.86-17.84-2.48Z"/><path d="M118.61,104.28l-.03-.5c11.56,1.23,11.81,1.73,11.91,1.91l-.48,.16c.03,.05,.06,.08,.06,.08-.52-.33-6.3-1.09-11.47-1.64Z"/><path d="M119.11,98.87l-.07-.51c3.5,.12,11.67,.54,11.95,1.99h-.53c-.12-.59-5.43-1.28-11.36-1.48Z"/></g></g></svg>